<?xml version="1.0" encoding="UTF-8" standalone="no"?>
<!DOCTYPE svg PUBLIC "-//W3C//DTD SVG 1.1//EN"
 "http://www.w3.org/Graphics/SVG/1.1/DTD/svg11.dtd">
<!-- Generated by graphviz version 2.47.0 (20210316.0004)
 -->
<!-- Title: dependencies Pages: 1 -->
<svg width="504pt" height="211pt"
 viewBox="0.00 0.00 504.00 211.00" xmlns="http://www.w3.org/2000/svg" xmlns:xlink="http://www.w3.org/1999/xlink">
<g id="graph0" class="graph" transform="scale(1 1) rotate(0) translate(4 207)">
<title>dependencies</title>
<polygon fill="white" stroke="transparent" points="-4,4 -4,-207 500,-207 500,4 -4,4"/>
<text text-anchor="start" x="227.01" y="-42.4" font-family="Times-12" font-weight="bold" font-size="14.00">Legend</text>
<polygon fill="#ffffb3" stroke="transparent" points="14,-10 14,-30 34,-30 34,-10 14,-10"/>
<text text-anchor="start" x="37.63" y="-15.4" font-family="Times-12" font-size="14.00"> &#160;Declarations</text>
<polygon fill="#8dd3c7" stroke="transparent" points="127,-10 127,-30 147,-30 147,-10 127,-10"/>
<text text-anchor="start" x="150.73" y="-15.4" font-family="Times-12" font-size="14.00"> &#160;Module</text>
<polygon fill="#80b1d3" stroke="transparent" points="213,-10 213,-30 233,-30 233,-10 213,-10"/>
<text text-anchor="start" x="236.78" y="-15.4" font-family="Times-12" font-size="14.00"> &#160;Bootstrap</text>
<polygon fill="#fdb462" stroke="transparent" points="310,-10 310,-30 330,-30 330,-10 310,-10"/>
<text text-anchor="start" x="333.67" y="-15.4" font-family="Times-12" font-size="14.00"> &#160;Providers</text>
<polygon fill="#fb8072" stroke="transparent" points="406,-10 406,-30 426,-30 426,-10 406,-10"/>
<text text-anchor="start" x="429.73" y="-15.4" font-family="Times-12" font-size="14.00"> &#160;Exports</text>
<g id="clust1" class="cluster">
<title>cluster_BookingModule</title>
<polygon fill="none" stroke="black" stroke-dasharray="1,5" points="46,-70 46,-195 450,-195 450,-70 46,-70"/>
</g>
<g id="clust3" class="cluster">
<title>cluster_BookingModule_imports</title>
<polygon fill="none" stroke="black" points="224,-78 224,-130 442,-130 442,-78 224,-78"/>
</g>
<g id="clust6" class="cluster">
<title>cluster_BookingModule_providers</title>
<polygon fill="none" stroke="black" points="54,-78 54,-130 216,-130 216,-78 54,-78"/>
</g>
<!-- EmailModule -->
<g id="node1" class="node">
<title>EmailModule</title>
<polygon fill="#8dd3c7" stroke="black" points="434.49,-122 431.49,-126 410.49,-126 407.49,-122 341.51,-122 341.51,-86 434.49,-86 434.49,-122"/>
<text text-anchor="middle" x="388" y="-99.8" font-family="Times,serif" font-size="14.00">EmailModule</text>
</g>
<!-- BookingModule -->
<g id="node3" class="node">
<title>BookingModule</title>
<polygon fill="#8dd3c7" stroke="black" points="331.78,-187 328.78,-191 307.78,-191 304.78,-187 224.22,-187 224.22,-151 331.78,-151 331.78,-187"/>
<text text-anchor="middle" x="278" y="-164.8" font-family="Times,serif" font-size="14.00">BookingModule</text>
</g>
<!-- EmailModule&#45;&gt;BookingModule -->
<g id="edge1" class="edge">
<title>EmailModule&#45;&gt;BookingModule</title>
<path fill="none" stroke="black" d="M341.46,-104C333.54,-104 327.8,-104 327.8,-104 327.8,-104 327.8,-140.89 327.8,-140.89"/>
<polygon fill="black" stroke="black" points="324.3,-140.89 327.8,-150.89 331.3,-140.89 324.3,-140.89"/>
</g>
<!-- RedisModule -->
<g id="node2" class="node">
<title>RedisModule</title>
<polygon fill="#8dd3c7" stroke="black" points="323.94,-122 320.94,-126 299.94,-126 296.94,-122 232.06,-122 232.06,-86 323.94,-86 323.94,-122"/>
<text text-anchor="middle" x="278" y="-99.8" font-family="Times,serif" font-size="14.00">RedisModule</text>
</g>
<!-- RedisModule&#45;&gt;BookingModule -->
<g id="edge2" class="edge">
<title>RedisModule&#45;&gt;BookingModule</title>
<path fill="none" stroke="black" d="M278,-122.11C278,-122.11 278,-140.99 278,-140.99"/>
<polygon fill="black" stroke="black" points="274.5,-140.99 278,-150.99 281.5,-140.99 274.5,-140.99"/>
</g>
<!-- BookingService -->
<g id="node4" class="node">
<title>BookingService</title>
<ellipse fill="#fdb462" stroke="black" cx="135" cy="-104" rx="73.02" ry="18"/>
<text text-anchor="middle" x="135" y="-99.8" font-family="Times,serif" font-size="14.00">BookingService</text>
</g>
<!-- BookingService&#45;&gt;BookingModule -->
<g id="edge3" class="edge">
<title>BookingService&#45;&gt;BookingModule</title>
<path fill="none" stroke="black" d="M208.43,-104C219.98,-104 228.2,-104 228.2,-104 228.2,-104 228.2,-140.89 228.2,-140.89"/>
<polygon fill="black" stroke="black" points="224.7,-140.89 228.2,-150.89 231.7,-140.89 224.7,-140.89"/>
</g>
</g>
</svg>
