<?xml version="1.0" encoding="UTF-8" standalone="no"?>
<!DOCTYPE svg PUBLIC "-//W3C//DTD SVG 1.1//EN"
 "http://www.w3.org/Graphics/SVG/1.1/DTD/svg11.dtd">
<!-- Generated by graphviz version 2.47.0 (20210316.0004)
 -->
<!-- Title: dependencies Pages: 1 -->
<svg width="1005pt" height="355pt"
 viewBox="0.00 0.00 1005.00 355.00" xmlns="http://www.w3.org/2000/svg" xmlns:xlink="http://www.w3.org/1999/xlink">
<g id="graph0" class="graph" transform="scale(1 1) rotate(0) translate(4 351)">
<title>dependencies</title>
<polygon fill="white" stroke="transparent" points="-4,4 -4,-351 1001,-351 1001,4 -4,4"/>
<text text-anchor="start" x="477.51" y="-42.4" font-family="Times-12" font-weight="bold" font-size="14.00">Legend</text>
<polygon fill="#ffffb3" stroke="transparent" points="264.5,-10 264.5,-30 284.5,-30 284.5,-10 264.5,-10"/>
<text text-anchor="start" x="288.13" y="-15.4" font-family="Times-12" font-size="14.00"> &#160;Declarations</text>
<polygon fill="#8dd3c7" stroke="transparent" points="377.5,-10 377.5,-30 397.5,-30 397.5,-10 377.5,-10"/>
<text text-anchor="start" x="401.23" y="-15.4" font-family="Times-12" font-size="14.00"> &#160;Module</text>
<polygon fill="#80b1d3" stroke="transparent" points="463.5,-10 463.5,-30 483.5,-30 483.5,-10 463.5,-10"/>
<text text-anchor="start" x="487.28" y="-15.4" font-family="Times-12" font-size="14.00"> &#160;Bootstrap</text>
<polygon fill="#fdb462" stroke="transparent" points="560.5,-10 560.5,-30 580.5,-30 580.5,-10 560.5,-10"/>
<text text-anchor="start" x="584.17" y="-15.4" font-family="Times-12" font-size="14.00"> &#160;Providers</text>
<polygon fill="#fb8072" stroke="transparent" points="656.5,-10 656.5,-30 676.5,-30 676.5,-10 656.5,-10"/>
<text text-anchor="start" x="680.23" y="-15.4" font-family="Times-12" font-size="14.00"> &#160;Exports</text>
<g id="clust1" class="cluster">
<title>cluster_AppModule</title>
<polygon fill="none" stroke="black" stroke-dasharray="1,5" points="292,-138 292,-339 669,-339 669,-138 292,-138"/>
</g>
<g id="clust3" class="cluster">
<title>cluster_AppModule_imports</title>
<polygon fill="none" stroke="black" points="438,-146 438,-274 661,-274 661,-146 438,-146"/>
</g>
<g id="clust6" class="cluster">
<title>cluster_AppModule_providers</title>
<polygon fill="none" stroke="black" points="300,-222 300,-274 430,-274 430,-222 300,-222"/>
</g>
<g id="clust7" class="cluster">
<title>cluster_EmailModule</title>
<polygon fill="none" stroke="black" stroke-dasharray="1,5" points="8,-214 8,-282 284,-282 284,-214 8,-214"/>
</g>
<g id="clust10" class="cluster">
<title>cluster_EmailModule_exports</title>
<polygon fill="none" stroke="black" points="166,-222 166,-274 276,-274 276,-222 166,-222"/>
</g>
<g id="clust12" class="cluster">
<title>cluster_EmailModule_providers</title>
<polygon fill="none" stroke="black" points="16,-222 16,-274 158,-274 158,-222 16,-222"/>
</g>
<g id="clust19" class="cluster">
<title>cluster_RedisModule</title>
<polygon fill="none" stroke="black" stroke-dasharray="1,5" points="833,-70 833,-282 989,-282 989,-70 833,-70"/>
</g>
<g id="clust22" class="cluster">
<title>cluster_RedisModule_exports</title>
<polygon fill="none" stroke="black" points="848,-222 848,-274 958,-274 958,-222 848,-222"/>
</g>
<g id="clust24" class="cluster">
<title>cluster_RedisModule_providers</title>
<polygon fill="none" stroke="black" points="841,-78 841,-130 981,-130 981,-78 841,-78"/>
</g>
<g id="clust25" class="cluster">
<title>cluster_UserModule</title>
<polygon fill="none" stroke="black" stroke-dasharray="1,5" points="677,-138 677,-206 825,-206 825,-138 677,-138"/>
</g>
<g id="clust30" class="cluster">
<title>cluster_UserModule_providers</title>
<polygon fill="none" stroke="black" points="685,-146 685,-198 817,-198 817,-146 685,-146"/>
</g>
<!-- EmailModule -->
<g id="node1" class="node">
<title>EmailModule</title>
<polygon fill="#8dd3c7" stroke="black" points="538.49,-190 535.49,-194 514.49,-194 511.49,-190 445.51,-190 445.51,-154 538.49,-154 538.49,-190"/>
<text text-anchor="middle" x="492" y="-167.8" font-family="Times,serif" font-size="14.00">EmailModule</text>
</g>
<!-- UserModule -->
<g id="node3" class="node">
<title>UserModule</title>
<polygon fill="#8dd3c7" stroke="black" points="647.98,-266 644.98,-270 623.98,-270 620.98,-266 562.02,-266 562.02,-230 647.98,-230 647.98,-266"/>
<text text-anchor="middle" x="605" y="-243.8" font-family="Times,serif" font-size="14.00">UserModule</text>
</g>
<!-- EmailModule&#45;&gt;UserModule -->
<g id="edge9" class="edge">
<title>EmailModule&#45;&gt;UserModule</title>
<path fill="none" stroke="black" d="M522.16,-190.31C522.16,-210.15 522.16,-239 522.16,-239 522.16,-239 551.64,-239 551.64,-239"/>
<polygon fill="black" stroke="black" points="551.64,-242.5 561.64,-239 551.64,-235.5 551.64,-242.5"/>
</g>
<!-- AppModule -->
<g id="node4" class="node">
<title>AppModule</title>
<polygon fill="#8dd3c7" stroke="black" points="556.66,-331 553.66,-335 532.66,-335 529.66,-331 473.34,-331 473.34,-295 556.66,-295 556.66,-331"/>
<text text-anchor="middle" x="515" y="-308.8" font-family="Times,serif" font-size="14.00">AppModule</text>
</g>
<!-- EmailModule&#45;&gt;AppModule -->
<g id="edge1" class="edge">
<title>EmailModule&#45;&gt;AppModule</title>
<path fill="none" stroke="black" d="M505.83,-190.14C505.83,-190.14 505.83,-284.93 505.83,-284.93"/>
<polygon fill="black" stroke="black" points="502.33,-284.92 505.83,-294.93 509.33,-284.93 502.33,-284.92"/>
</g>
<!-- EmailService  -->
<g id="node6" class="node">
<title>EmailService </title>
<polygon fill="#fb8072" stroke="black" points="268.42,-266 173.58,-266 173.58,-230 268.42,-230 268.42,-266"/>
<text text-anchor="middle" x="221" y="-243.8" font-family="Times,serif" font-size="14.00">EmailService </text>
</g>
<!-- EmailModule&#45;&gt;EmailService  -->
<g id="edge5" class="edge">
<title>EmailModule&#45;&gt;EmailService </title>
<path fill="none" stroke="black" stroke-dasharray="5,2" d="M445.41,-178C367.93,-178 221,-178 221,-178 221,-178 221,-219.97 221,-219.97"/>
<polygon fill="black" stroke="black" points="217.5,-219.97 221,-229.97 224.5,-219.97 217.5,-219.97"/>
</g>
<!-- HealthModule -->
<g id="node2" class="node">
<title>HealthModule</title>
<polygon fill="#8dd3c7" stroke="black" points="653.37,-190 650.37,-194 629.37,-194 626.37,-190 556.63,-190 556.63,-154 653.37,-154 653.37,-190"/>
<text text-anchor="middle" x="605" y="-167.8" font-family="Times,serif" font-size="14.00">HealthModule</text>
</g>
<!-- HealthModule&#45;&gt;AppModule -->
<g id="edge2" class="edge">
<title>HealthModule&#45;&gt;AppModule</title>
<path fill="none" stroke="black" d="M556.47,-172C549.44,-172 544.52,-172 544.52,-172 544.52,-172 544.52,-284.86 544.52,-284.86"/>
<polygon fill="black" stroke="black" points="541.02,-284.86 544.52,-294.86 548.02,-284.86 541.02,-284.86"/>
</g>
<!-- UserModule&#45;&gt;AppModule -->
<g id="edge3" class="edge">
<title>UserModule&#45;&gt;AppModule</title>
<path fill="none" stroke="black" d="M561.83,-257C555.22,-257 550.54,-257 550.54,-257 550.54,-257 550.54,-284.97 550.54,-284.97"/>
<polygon fill="black" stroke="black" points="547.04,-284.97 550.54,-294.97 554.04,-284.97 547.04,-284.97"/>
</g>
<!-- AppService -->
<g id="node5" class="node">
<title>AppService</title>
<ellipse fill="#fdb462" stroke="black" cx="365" cy="-248" rx="56.74" ry="18"/>
<text text-anchor="middle" x="365" y="-243.8" font-family="Times,serif" font-size="14.00">AppService</text>
</g>
<!-- AppService&#45;&gt;AppModule -->
<g id="edge4" class="edge">
<title>AppService&#45;&gt;AppModule</title>
<path fill="none" stroke="black" d="M421.79,-248C454.62,-248 489.5,-248 489.5,-248 489.5,-248 489.5,-284.89 489.5,-284.89"/>
<polygon fill="black" stroke="black" points="486,-284.89 489.5,-294.89 493,-284.89 486,-284.89"/>
</g>
<!-- EmailService -->
<g id="node7" class="node">
<title>EmailService</title>
<ellipse fill="#fdb462" stroke="black" cx="87" cy="-248" rx="63.12" ry="18"/>
<text text-anchor="middle" x="87" y="-243.8" font-family="Times,serif" font-size="14.00">EmailService</text>
</g>
<!-- EmailService&#45;&gt;EmailModule -->
<g id="edge6" class="edge">
<title>EmailService&#45;&gt;EmailModule</title>
<path fill="none" stroke="black" d="M87,-229.8C87,-205.64 87,-166 87,-166 87,-166 435.15,-166 435.15,-166"/>
<polygon fill="black" stroke="black" points="435.15,-169.5 445.15,-166 435.15,-162.5 435.15,-169.5"/>
</g>
<!-- RedisService  -->
<g id="node8" class="node">
<title>RedisService </title>
<polygon fill="#fb8072" stroke="black" points="949.86,-266 856.14,-266 856.14,-230 949.86,-230 949.86,-266"/>
<text text-anchor="middle" x="903" y="-243.8" font-family="Times,serif" font-size="14.00">RedisService </text>
</g>
<!-- RedisModule -->
<g id="node9" class="node">
<title>RedisModule</title>
<polygon fill="#8dd3c7" stroke="black" points="948.94,-190 945.94,-194 924.94,-194 921.94,-190 857.06,-190 857.06,-154 948.94,-154 948.94,-190"/>
<text text-anchor="middle" x="903" y="-167.8" font-family="Times,serif" font-size="14.00">RedisModule</text>
</g>
<!-- RedisModule&#45;&gt;UserModule -->
<g id="edge10" class="edge">
<title>RedisModule&#45;&gt;UserModule</title>
<path fill="none" stroke="black" d="M856.96,-172C854.29,-172 852.67,-172 852.67,-172 852.67,-172 852.67,-254 852.67,-254 852.67,-254 658.14,-254 658.14,-254"/>
<polygon fill="black" stroke="black" points="658.14,-250.5 648.14,-254 658.14,-257.5 658.14,-250.5"/>
</g>
<!-- RedisModule&#45;&gt;RedisService  -->
<g id="edge7" class="edge">
<title>RedisModule&#45;&gt;RedisService </title>
<path fill="none" stroke="black" stroke-dasharray="5,2" d="M903,-190.01C903,-190.01 903,-219.85 903,-219.85"/>
<polygon fill="black" stroke="black" points="899.5,-219.85 903,-229.85 906.5,-219.85 899.5,-219.85"/>
</g>
<!-- RedisService -->
<g id="node10" class="node">
<title>RedisService</title>
<ellipse fill="#fdb462" stroke="black" cx="911" cy="-104" rx="61.97" ry="18"/>
<text text-anchor="middle" x="911" y="-99.8" font-family="Times,serif" font-size="14.00">RedisService</text>
</g>
<!-- RedisService&#45;&gt;RedisModule -->
<g id="edge8" class="edge">
<title>RedisService&#45;&gt;RedisModule</title>
<path fill="none" stroke="black" d="M903,-121.87C903,-121.87 903,-143.54 903,-143.54"/>
<polygon fill="black" stroke="black" points="899.5,-143.54 903,-153.54 906.5,-143.54 899.5,-143.54"/>
</g>
<!-- UserService -->
<g id="node11" class="node">
<title>UserService</title>
<ellipse fill="#fdb462" stroke="black" cx="751" cy="-172" rx="58.44" ry="18"/>
<text text-anchor="middle" x="751" y="-167.8" font-family="Times,serif" font-size="14.00">UserService</text>
</g>
<!-- UserService&#45;&gt;UserModule -->
<g id="edge11" class="edge">
<title>UserService&#45;&gt;UserModule</title>
<path fill="none" stroke="black" d="M751,-190.03C751,-210.77 751,-242 751,-242 751,-242 658.02,-242 658.02,-242"/>
<polygon fill="black" stroke="black" points="658.02,-238.5 648.02,-242 658.02,-245.5 658.02,-238.5"/>
</g>
</g>
</svg>
