<?xml version="1.0" encoding="UTF-8" standalone="no"?>
<!DOCTYPE svg PUBLIC "-//W3C//DTD SVG 1.1//EN"
 "http://www.w3.org/Graphics/SVG/1.1/DTD/svg11.dtd">
<!-- Generated by graphviz version 2.47.0 (20210316.0004)
 -->
<!-- Title: dependencies Pages: 1 -->
<svg width="1250pt" height="211pt"
 viewBox="0.00 0.00 1250.00 211.00" xmlns="http://www.w3.org/2000/svg" xmlns:xlink="http://www.w3.org/1999/xlink">
<g id="graph0" class="graph" transform="scale(1 1) rotate(0) translate(4 207)">
<title>dependencies</title>
<polygon fill="white" stroke="transparent" points="-4,4 -4,-207 1246,-207 1246,4 -4,4"/>
<text text-anchor="start" x="600.01" y="-42.4" font-family="Times-12" font-weight="bold" font-size="14.00">Legend</text>
<polygon fill="#ffffb3" stroke="transparent" points="387,-10 387,-30 407,-30 407,-10 387,-10"/>
<text text-anchor="start" x="410.63" y="-15.4" font-family="Times-12" font-size="14.00"> &#160;Declarations</text>
<polygon fill="#8dd3c7" stroke="transparent" points="500,-10 500,-30 520,-30 520,-10 500,-10"/>
<text text-anchor="start" x="523.73" y="-15.4" font-family="Times-12" font-size="14.00"> &#160;Module</text>
<polygon fill="#80b1d3" stroke="transparent" points="586,-10 586,-30 606,-30 606,-10 586,-10"/>
<text text-anchor="start" x="609.78" y="-15.4" font-family="Times-12" font-size="14.00"> &#160;Bootstrap</text>
<polygon fill="#fdb462" stroke="transparent" points="683,-10 683,-30 703,-30 703,-10 683,-10"/>
<text text-anchor="start" x="706.67" y="-15.4" font-family="Times-12" font-size="14.00"> &#160;Providers</text>
<polygon fill="#fb8072" stroke="transparent" points="779,-10 779,-30 799,-30 799,-10 779,-10"/>
<text text-anchor="start" x="802.73" y="-15.4" font-family="Times-12" font-size="14.00"> &#160;Exports</text>
<g id="clust1" class="cluster">
<title>cluster_AppModule</title>
<polygon fill="none" stroke="black" stroke-dasharray="1,5" points="8,-70 8,-195 1234,-195 1234,-70 8,-70"/>
</g>
<g id="clust3" class="cluster">
<title>cluster_AppModule_imports</title>
<polygon fill="none" stroke="black" points="154,-78 154,-130 1226,-130 1226,-78 154,-78"/>
</g>
<g id="clust6" class="cluster">
<title>cluster_AppModule_providers</title>
<polygon fill="none" stroke="black" points="16,-78 16,-130 146,-130 146,-78 16,-78"/>
</g>
<!-- BookingModule -->
<g id="node1" class="node">
<title>BookingModule</title>
<polygon fill="#8dd3c7" stroke="black" points="1217.78,-122 1214.78,-126 1193.78,-126 1190.78,-122 1110.22,-122 1110.22,-86 1217.78,-86 1217.78,-122"/>
<text text-anchor="middle" x="1164" y="-99.8" font-family="Times,serif" font-size="14.00">BookingModule</text>
</g>
<!-- AppModule -->
<g id="node10" class="node">
<title>AppModule</title>
<polygon fill="#8dd3c7" stroke="black" points="640.66,-187 637.66,-191 616.66,-191 613.66,-187 557.34,-187 557.34,-151 640.66,-151 640.66,-187"/>
<text text-anchor="middle" x="599" y="-164.8" font-family="Times,serif" font-size="14.00">AppModule</text>
</g>
<!-- BookingModule&#45;&gt;AppModule -->
<g id="edge1" class="edge">
<title>BookingModule&#45;&gt;AppModule</title>
<path fill="none" stroke="black" d="M1164,-122.01C1164,-144.49 1164,-180 1164,-180 1164,-180 651.01,-180 651.01,-180"/>
<polygon fill="black" stroke="black" points="651.01,-176.5 641.01,-180 651.01,-183.5 651.01,-176.5"/>
</g>
<!-- EmailModule -->
<g id="node2" class="node">
<title>EmailModule</title>
<polygon fill="#8dd3c7" stroke="black" points="1092.49,-122 1089.49,-126 1068.49,-126 1065.49,-122 999.51,-122 999.51,-86 1092.49,-86 1092.49,-122"/>
<text text-anchor="middle" x="1046" y="-99.8" font-family="Times,serif" font-size="14.00">EmailModule</text>
</g>
<!-- EmailModule&#45;&gt;AppModule -->
<g id="edge2" class="edge">
<title>EmailModule&#45;&gt;AppModule</title>
<path fill="none" stroke="black" d="M1046,-122.13C1046,-142.57 1046,-173 1046,-173 1046,-173 651.05,-173 651.05,-173"/>
<polygon fill="black" stroke="black" points="651.05,-169.5 641.05,-173 651.05,-176.5 651.05,-169.5"/>
</g>
<!-- FeReportModule -->
<g id="node3" class="node">
<title>FeReportModule</title>
<polygon fill="#8dd3c7" stroke="black" points="981.65,-122 978.65,-126 957.65,-126 954.65,-122 870.35,-122 870.35,-86 981.65,-86 981.65,-122"/>
<text text-anchor="middle" x="926" y="-99.8" font-family="Times,serif" font-size="14.00">FeReportModule</text>
</g>
<!-- FeReportModule&#45;&gt;AppModule -->
<g id="edge3" class="edge">
<title>FeReportModule&#45;&gt;AppModule</title>
<path fill="none" stroke="black" d="M926,-122.27C926,-140.56 926,-166 926,-166 926,-166 650.75,-166 650.75,-166"/>
<polygon fill="black" stroke="black" points="650.75,-162.5 640.75,-166 650.75,-169.5 650.75,-162.5"/>
</g>
<!-- HealthModule -->
<g id="node4" class="node">
<title>HealthModule</title>
<polygon fill="#8dd3c7" stroke="black" points="852.37,-122 849.37,-126 828.37,-126 825.37,-122 755.63,-122 755.63,-86 852.37,-86 852.37,-122"/>
<text text-anchor="middle" x="804" y="-99.8" font-family="Times,serif" font-size="14.00">HealthModule</text>
</g>
<!-- HealthModule&#45;&gt;AppModule -->
<g id="edge4" class="edge">
<title>HealthModule&#45;&gt;AppModule</title>
<path fill="none" stroke="black" d="M804,-122.01C804,-138.05 804,-159 804,-159 804,-159 650.98,-159 650.98,-159"/>
<polygon fill="black" stroke="black" points="650.98,-155.5 640.98,-159 650.98,-162.5 650.98,-155.5"/>
</g>
<!-- MeetingRoomModule -->
<g id="node5" class="node">
<title>MeetingRoomModule</title>
<polygon fill="#8dd3c7" stroke="black" points="737.43,-122 734.43,-126 713.43,-126 710.43,-122 596.57,-122 596.57,-86 737.43,-86 737.43,-122"/>
<text text-anchor="middle" x="667" y="-99.8" font-family="Times,serif" font-size="14.00">MeetingRoomModule</text>
</g>
<!-- MeetingRoomModule&#45;&gt;AppModule -->
<g id="edge5" class="edge">
<title>MeetingRoomModule&#45;&gt;AppModule</title>
<path fill="none" stroke="black" d="M618.81,-122.11C618.81,-122.11 618.81,-140.99 618.81,-140.99"/>
<polygon fill="black" stroke="black" points="615.31,-140.99 618.81,-150.99 622.31,-140.99 615.31,-140.99"/>
</g>
<!-- MinioModule -->
<g id="node6" class="node">
<title>MinioModule</title>
<polygon fill="#8dd3c7" stroke="black" points="578.78,-122 575.78,-126 554.78,-126 551.78,-122 485.22,-122 485.22,-86 578.78,-86 578.78,-122"/>
<text text-anchor="middle" x="532" y="-99.8" font-family="Times,serif" font-size="14.00">MinioModule</text>
</g>
<!-- MinioModule&#45;&gt;AppModule -->
<g id="edge6" class="edge">
<title>MinioModule&#45;&gt;AppModule</title>
<path fill="none" stroke="black" d="M568.03,-122.11C568.03,-122.11 568.03,-140.99 568.03,-140.99"/>
<polygon fill="black" stroke="black" points="564.53,-140.99 568.03,-150.99 571.53,-140.99 564.53,-140.99"/>
</g>
<!-- SseModule -->
<g id="node7" class="node">
<title>SseModule</title>
<polygon fill="#8dd3c7" stroke="black" points="467.49,-122 464.49,-126 443.49,-126 440.49,-122 388.51,-122 388.51,-86 467.49,-86 467.49,-122"/>
<text text-anchor="middle" x="428" y="-99.8" font-family="Times,serif" font-size="14.00">SseModule</text>
</g>
<!-- SseModule&#45;&gt;AppModule -->
<g id="edge7" class="edge">
<title>SseModule&#45;&gt;AppModule</title>
<path fill="none" stroke="black" d="M428,-122.01C428,-138.05 428,-159 428,-159 428,-159 547.17,-159 547.17,-159"/>
<polygon fill="black" stroke="black" points="547.17,-162.5 557.17,-159 547.17,-155.5 547.17,-162.5"/>
</g>
<!-- StatisticModule -->
<g id="node8" class="node">
<title>StatisticModule</title>
<polygon fill="#8dd3c7" stroke="black" points="370.16,-122 367.16,-126 346.16,-126 343.16,-122 265.84,-122 265.84,-86 370.16,-86 370.16,-122"/>
<text text-anchor="middle" x="318" y="-99.8" font-family="Times,serif" font-size="14.00">StatisticModule</text>
</g>
<!-- StatisticModule&#45;&gt;AppModule -->
<g id="edge8" class="edge">
<title>StatisticModule&#45;&gt;AppModule</title>
<path fill="none" stroke="black" d="M318,-122.27C318,-140.56 318,-166 318,-166 318,-166 547.23,-166 547.23,-166"/>
<polygon fill="black" stroke="black" points="547.23,-169.5 557.23,-166 547.23,-162.5 547.23,-169.5"/>
</g>
<!-- UserModule -->
<g id="node9" class="node">
<title>UserModule</title>
<polygon fill="#8dd3c7" stroke="black" points="247.98,-122 244.98,-126 223.98,-126 220.98,-122 162.02,-122 162.02,-86 247.98,-86 247.98,-122"/>
<text text-anchor="middle" x="205" y="-99.8" font-family="Times,serif" font-size="14.00">UserModule</text>
</g>
<!-- UserModule&#45;&gt;AppModule -->
<g id="edge9" class="edge">
<title>UserModule&#45;&gt;AppModule</title>
<path fill="none" stroke="black" d="M205,-122.13C205,-142.57 205,-173 205,-173 205,-173 547.21,-173 547.21,-173"/>
<polygon fill="black" stroke="black" points="547.21,-176.5 557.21,-173 547.21,-169.5 547.21,-176.5"/>
</g>
<!-- AppService -->
<g id="node11" class="node">
<title>AppService</title>
<ellipse fill="#fdb462" stroke="black" cx="81" cy="-104" rx="56.74" ry="18"/>
<text text-anchor="middle" x="81" y="-99.8" font-family="Times,serif" font-size="14.00">AppService</text>
</g>
<!-- AppService&#45;&gt;AppModule -->
<g id="edge10" class="edge">
<title>AppService&#45;&gt;AppModule</title>
<path fill="none" stroke="black" d="M81,-122.01C81,-144.49 81,-180 81,-180 81,-180 547.05,-180 547.05,-180"/>
<polygon fill="black" stroke="black" points="547.05,-183.5 557.05,-180 547.05,-176.5 547.05,-183.5"/>
</g>
</g>
</svg>
